<svg width="512" height="512" viewBox="0 0 512 512" fill="none" xmlns="http://www.w3.org/2000/svg">
<g clip-path="url(#clip0_133_9)">
<rect width="512" height="512" rx="114" fill="black"/>
<path d="M233.768 422.661C233.631 423.18 233.44 423.7 233.193 424.192C233.084 424.356 233.002 424.493 232.893 424.63C232.674 424.931 232.455 425.204 232.181 425.45C230.923 426.681 229.118 427.365 227.259 426.982C213.118 412.541 159.457 356.993 143.649 328.767C130.712 305.656 145.918 282.709 155.929 271.468L233.221 418.941C233.549 419.625 233.768 420.254 233.85 420.91C233.932 421.512 233.905 422.086 233.768 422.633V422.661Z" fill="url(#paint0_linear_133_9)"/>
<path d="M368.332 328.767C352.523 356.992 298.862 412.541 284.722 426.982C282.698 427.392 280.701 426.572 279.443 425.067C279.115 424.685 278.814 424.192 278.568 423.7C278.486 423.536 278.431 423.372 278.377 423.208C278.267 422.879 278.185 422.497 278.13 422.141C278.021 421.129 278.185 420.062 278.759 418.996L356.024 271.523C366.034 282.764 381.214 305.738 368.277 328.822L368.332 328.767Z" fill="url(#paint1_linear_133_9)"/>
<path d="M375.142 253.307L354.383 216.083C354.328 215.892 354.301 215.673 354.191 215.482L295.525 108.405C278.431 77.1983 233.604 77.1983 216.51 108.405L146.959 235.283L136.893 253.307C123.875 276.856 120.866 295.372 122.343 306.258C123.273 312.74 126.336 317.964 129.017 322.203C140.641 340.391 156.34 361.724 177.208 383.495C193.646 400.644 210.001 414.62 225.044 425.943C225.755 426.49 226.521 426.845 227.286 426.982C213.146 412.541 159.485 356.992 143.676 328.767C130.74 305.656 145.947 282.709 155.957 271.468C155.957 271.468 208.469 196.528 219.656 182.634C223.594 177.765 229.228 174.456 234.89 172.159C248.373 166.743 263.634 166.743 277.145 172.159C282.807 174.456 288.414 177.765 292.379 182.634C303.593 196.555 356.078 271.468 356.078 271.468C366.089 282.709 381.268 305.683 368.331 328.767C352.523 356.992 298.861 412.541 284.721 426.982C285.487 426.818 286.226 426.49 286.964 425.943C302.007 414.647 318.362 400.644 334.8 383.495C355.641 361.724 371.34 340.391 382.991 322.203C385.671 317.964 388.762 312.767 389.637 306.258C391.169 295.372 388.133 276.856 375.114 253.307H375.142Z" fill="white"/>
</g>
<defs>
<linearGradient id="paint0_linear_133_9" x1="430.443" y1="500.491" x2="280.892" y2="-72.3109" gradientUnits="userSpaceOnUse">
<stop stop-color="#FAFAFA"/>
<stop offset="0.79" stop-color="#777777"/>
</linearGradient>
<linearGradient id="paint1_linear_133_9" x1="83.1609" y1="500.491" x2="232.713" y2="-72.3108" gradientUnits="userSpaceOnUse">
<stop stop-color="#FAFAFA"/>
<stop offset="0.79" stop-color="#777777"/>
</linearGradient>
<clipPath id="clip0_133_9">
<rect width="512" height="512" rx="114" fill="white"/>
</clipPath>
</defs>
</svg>
