<svg width="608" height="180" viewBox="0 0 608 180" fill="none" xmlns="http://www.w3.org/2000/svg">
<g clip-path="url(#clip0_147_13)">
<rect width="180" height="180" fill="black"/>
<path d="M82.1843 148.592C82.1362 148.774 82.0688 148.957 81.9822 149.13C81.9438 149.188 81.915 149.236 81.8766 149.284C81.7996 149.39 81.7226 149.486 81.6265 149.572C81.1842 150.005 80.5496 150.245 79.8958 150.111C74.9247 145.034 56.0594 125.505 50.5017 115.582C45.9536 107.457 51.2997 99.3899 54.8189 95.438L81.992 147.284C82.1073 147.524 82.1843 147.746 82.2131 147.976C82.2419 148.188 82.2323 148.39 82.1843 148.582V148.592Z" fill="url(#paint0_linear_147_13)"/>
<path d="M129.492 115.582C123.934 125.505 105.069 145.034 100.098 150.111C99.386 150.255 98.6841 149.966 98.2418 149.438C98.1264 149.303 98.0206 149.13 97.9341 148.957C97.9052 148.899 97.886 148.841 97.8668 148.784C97.8283 148.668 97.7995 148.534 97.7802 148.409C97.7418 148.053 97.7995 147.678 98.0014 147.303L125.165 95.457C128.684 99.4089 134.02 107.486 129.472 115.601L129.492 115.582Z" fill="url(#paint1_linear_147_13)"/>
<path d="M131.886 89.0534L124.588 75.9668C124.568 75.8995 124.559 75.8226 124.52 75.7552L103.895 38.1111C97.8858 27.14 82.1265 27.14 76.1169 38.1111L51.6651 82.7168L48.1266 89.0534C43.5497 97.3322 42.4921 103.842 43.0113 107.669C43.3382 109.948 44.4151 111.784 45.3574 113.274C49.444 119.669 54.9632 127.169 62.2997 134.822C68.0785 140.851 73.8285 145.765 79.1169 149.745C79.3669 149.938 79.6362 150.063 79.9054 150.111C74.9343 145.034 56.0689 125.505 50.5113 115.582C45.9632 107.457 51.3093 99.3899 54.8286 95.438C54.8286 95.438 73.29 69.0918 77.2227 64.2072C78.6073 62.4957 80.5881 61.3322 82.5785 60.5245C87.3185 58.6207 92.6839 58.6207 97.4339 60.5245C99.4243 61.3322 101.395 62.4957 102.79 64.2072C106.732 69.1014 125.184 95.438 125.184 95.438C128.703 99.3899 134.04 107.467 129.491 115.582C123.934 125.505 105.068 145.034 100.097 150.111C100.367 150.053 100.626 149.938 100.886 149.745C106.174 145.774 111.924 140.851 117.703 134.822C125.03 127.169 130.549 119.669 134.645 113.274C135.588 111.784 136.674 109.957 136.982 107.669C137.52 103.842 136.453 97.3322 131.876 89.0534H131.886Z" fill="white"/>
</g>
<path d="M221.091 136H206.182L239.682 42.9091H255.909L289.409 136H274.5L248.182 59.8182H247.455L221.091 136ZM223.591 99.5455H271.955V111.364H223.591V99.5455ZM345.989 107.045V66.1818H359.625V136H346.261V123.909H345.534C343.928 127.636 341.352 130.742 337.807 133.227C334.292 135.682 329.913 136.909 324.67 136.909C320.186 136.909 316.216 135.924 312.761 133.955C309.337 131.955 306.64 129 304.67 125.091C302.731 121.182 301.761 116.348 301.761 110.591V66.1818H315.352V108.955C315.352 113.712 316.67 117.5 319.307 120.318C321.943 123.136 325.367 124.545 329.58 124.545C332.125 124.545 334.655 123.909 337.17 122.636C339.716 121.364 341.822 119.439 343.489 116.864C345.186 114.288 346.019 111.015 345.989 107.045ZM377.886 136V66.1818H391.023V77.2727H391.75C393.023 73.5151 395.265 70.5606 398.477 68.4091C401.72 66.2273 405.386 65.1364 409.477 65.1364C410.326 65.1364 411.326 65.1667 412.477 65.2273C413.659 65.2879 414.583 65.3636 415.25 65.4545V78.4545C414.705 78.303 413.735 78.1364 412.341 77.9545C410.947 77.7424 409.553 77.6364 408.159 77.6364C404.947 77.6364 402.083 78.3182 399.568 79.6818C397.083 81.0151 395.114 82.8788 393.659 85.2727C392.205 87.6364 391.477 90.3333 391.477 93.3636V136H377.886ZM471.239 107.045V66.1818H484.875V136H471.511V123.909H470.784C469.178 127.636 466.602 130.742 463.057 133.227C459.542 135.682 455.163 136.909 449.92 136.909C445.436 136.909 441.466 135.924 438.011 133.955C434.587 131.955 431.89 129 429.92 125.091C427.981 121.182 427.011 116.348 427.011 110.591V66.1818H440.602V108.955C440.602 113.712 441.92 117.5 444.557 120.318C447.193 123.136 450.617 124.545 454.83 124.545C457.375 124.545 459.905 123.909 462.42 122.636C464.966 121.364 467.072 119.439 468.739 116.864C470.436 114.288 471.269 111.015 471.239 107.045ZM503.136 136V66.1818H516.182V77.5455H517.045C518.5 73.697 520.879 70.697 524.182 68.5455C527.485 66.3636 531.439 65.2727 536.045 65.2727C540.712 65.2727 544.621 66.3636 547.773 68.5455C550.955 70.7273 553.303 73.7273 554.818 77.5455H555.545C557.212 73.8182 559.864 70.8485 563.5 68.6364C567.136 66.3939 571.47 65.2727 576.5 65.2727C582.833 65.2727 588 67.2576 592 71.2273C596.03 75.197 598.045 81.1818 598.045 89.1818V136H584.455V90.4545C584.455 85.7273 583.167 82.303 580.591 80.1818C578.015 78.0606 574.939 77 571.364 77C566.939 77 563.5 78.3636 561.045 81.0909C558.591 83.7879 557.364 87.2576 557.364 91.5V136H543.818V89.5909C543.818 85.803 542.636 82.7576 540.273 80.4545C537.909 78.1515 534.833 77 531.045 77C528.47 77 526.091 77.6818 523.909 79.0455C521.758 80.3788 520.015 82.2424 518.682 84.6364C517.379 87.0303 516.727 89.803 516.727 92.9545V136H503.136Z" fill="white"/>
<defs>
<linearGradient id="paint0_linear_147_13" x1="151.328" y1="175.954" x2="98.7512" y2="-25.4218" gradientUnits="userSpaceOnUse">
<stop stop-color="#FAFAFA"/>
<stop offset="0.79" stop-color="#777777"/>
</linearGradient>
<linearGradient id="paint1_linear_147_13" x1="29.2363" y1="175.954" x2="81.813" y2="-25.4219" gradientUnits="userSpaceOnUse">
<stop stop-color="#FAFAFA"/>
<stop offset="0.79" stop-color="#777777"/>
</linearGradient>
<clipPath id="clip0_147_13">
<rect width="180" height="180" rx="40" fill="white"/>
</clipPath>
</defs>
</svg>
